<?xml version="1.0" encoding="UTF-8" standalone="no"?>
<!-- Created with Inkscape (http://www.inkscape.org/) -->

<svg
   xmlns:dc="http://purl.org/dc/elements/1.1/"
   xmlns:cc="http://creativecommons.org/ns#"
   xmlns:rdf="http://www.w3.org/1999/02/22-rdf-syntax-ns#"
   xmlns:svg="http://www.w3.org/2000/svg"
   xmlns="http://www.w3.org/2000/svg"
   xmlns:sodipodi="http://sodipodi.sourceforge.net/DTD/sodipodi-0.dtd"
   xmlns:inkscape="http://www.inkscape.org/namespaces/inkscape"
   width="210mm"
   height="297mm"
   viewBox="0 0 210 297"
   version="1.1"
   id="svg8"
   inkscape:version="0.92.2 5c3e80d, 2017-08-06"
   sodipodi:docname="moxdraft-logo-1.svg">
  <defs
     id="defs2" />
  <sodipodi:namedview
     id="base"
     pagecolor="#ffffff"
     bordercolor="#666666"
     borderopacity="1.0"
     inkscape:pageopacity="0.0"
     inkscape:pageshadow="2"
     inkscape:zoom="1.2593142"
     inkscape:cx="171.66639"
     inkscape:cy="337.33797"
     inkscape:document-units="mm"
     inkscape:current-layer="layer1"
     showgrid="false"
     inkscape:window-width="1920"
     inkscape:window-height="1080"
     inkscape:window-x="0"
     inkscape:window-y="-24"
     inkscape:window-maximized="1" />
  <metadata
     id="metadata5">
    <rdf:RDF>
      <cc:Work
         rdf:about="">
        <dc:format>image/svg+xml</dc:format>
        <dc:type
           rdf:resource="http://purl.org/dc/dcmitype/StillImage" />
        <dc:title />
      </cc:Work>
    </rdf:RDF>
  </metadata>
  <g
     inkscape:label="Layer 1"
     inkscape:groupmode="layer"
     id="layer1">
    <path
       d="m 52.00289,133.16379 h 5.445672 v -11.46458 l 5.101735,7.79591 h 0.114645 l 5.130397,-7.85323 v 11.5219 h 5.531656 v -20.063 h -5.875593 l -4.78646,7.76724 -4.786459,-7.76724 H 52.00289 Z"
       style="font-style:normal;font-variant:normal;font-weight:500;font-stretch:normal;font-size:28.66143227px;line-height:1.25;font-family:GothamBlack;-inkscape-font-specification:'GothamBlack, Medium';font-variant-ligatures:normal;font-variant-caps:normal;font-variant-numeric:normal;font-feature-settings:normal;text-align:start;letter-spacing:0px;word-spacing:0px;writing-mode:lr-tb;text-anchor:start;fill:#000000;fill-opacity:1;stroke:none;stroke-width:0.26458332"
       id="path69"
       inkscape:connector-curvature="0" />
    <path
       d="m 49.970882,196.19413 h 5.445672 v -11.46458 l 5.101735,7.79591 h 0.114645 l 5.130397,-7.85323 v 11.5219 h 5.531656 v -20.063 h -5.875593 l -4.78646,7.76724 -4.786459,-7.76724 h -5.875593 z"
       style="font-style:normal;font-variant:normal;font-weight:500;font-stretch:normal;font-size:28.66143227px;line-height:1.25;font-family:GothamBlack;-inkscape-font-specification:'GothamBlack, Medium';font-variant-ligatures:normal;font-variant-caps:normal;font-variant-numeric:normal;font-feature-settings:normal;text-align:start;letter-spacing:0px;word-spacing:0px;writing-mode:lr-tb;text-anchor:start;fill:#000000;fill-opacity:1;stroke:none;stroke-width:0.26458332"
       id="path104"
       inkscape:connector-curvature="0" />
    <path
       style="font-style:normal;font-variant:normal;font-weight:500;font-stretch:normal;font-size:28.66143227px;line-height:1.25;font-family:GothamBlack;-inkscape-font-specification:'GothamBlack, Medium';font-variant-ligatures:normal;font-variant-caps:normal;font-variant-numeric:normal;font-feature-settings:normal;text-align:start;letter-spacing:0px;word-spacing:0px;writing-mode:lr-tb;text-anchor:start;fill:#d70000;fill-opacity:1;stroke:none;stroke-width:0.99999994"
       d="M 584.86133 979.85938 C 580.02275 979.85938 575.97833 981.23034 572.72852 983.97461 C 569.47873 986.64668 567.13186 990.80061 565.6875 996.43359 L 563.8457 1003.1504 L 556.1543 1003.1504 L 554.20508 1010.5156 L 561.89648 1010.5156 L 548.78906 1059.1543 L 557.12891 1059.1543 L 570.23828 1010.5156 L 588.43555 1010.5156 L 596.12695 1010.5156 L 587.35352 1043.2305 C 587.1368 1044.0971 586.95492 1045.0358 586.81055 1046.0469 C 586.66617 1047.0579 586.5957 1048.069 586.5957 1049.0801 C 586.5957 1052.7632 587.8591 1055.5442 590.38672 1057.4219 C 592.91434 1059.2273 596.19995 1060.1289 600.24414 1060.1289 C 601.90514 1060.1289 603.42082 1059.9842 604.79297 1059.6953 C 606.23733 1059.4786 607.68259 1059.0816 609.12695 1058.5039 L 611.18555 1050.9219 C 608.22461 1052.0774 605.51593 1052.6543 603.06055 1052.6543 C 600.67735 1052.6543 598.79988 1052.1849 597.42773 1051.2461 C 596.05559 1050.3073 595.36914 1048.8639 595.36914 1046.9141 C 595.36914 1046.3363 595.40425 1045.6851 595.47656 1044.9629 C 595.54888 1044.1685 595.65836 1043.4468 595.80273 1042.7969 L 604.46875 1010.5156 L 622.125 1010.5156 L 624.07617 1003.1504 L 606.41797 1003.1504 L 610.96875 986.25 L 602.73633 986.25 L 598.18555 1003.1504 L 590.49414 1003.1504 L 590.38672 1003.1504 L 572.1875 1003.1504 L 573.5957 997.73242 C 574.60675 994.0493 576.05007 991.3778 577.92773 989.7168 C 579.87762 987.98358 582.18928 987.11719 584.86133 987.11719 C 586.52235 987.11719 588.03999 987.29713 589.41211 987.6582 C 590.85647 988.0193 592.40736 988.59817 594.06836 989.39258 L 596.01953 982.24219 C 592.98638 980.6534 589.26662 979.85938 584.86133 979.85938 z M 311.91406 981.80859 C 288.5155 981.80859 270.9668 999.46657 270.9668 1021.2402 L 270.9668 1021.457 C 270.9668 1043.2307 288.29871 1060.6719 311.69727 1060.6719 L 311.69727 1060.6699 C 335.09583 1060.6699 352.64453 1043.0139 352.64453 1021.2402 L 352.64453 1021.0234 C 352.64453 999.24981 335.31262 981.80859 311.91406 981.80859 z M 188.86719 983.32617 L 188.86719 1059.1543 L 209.44922 1059.1543 L 209.44922 1015.8242 L 228.73047 1045.2891 L 229.16406 1045.2891 L 248.55469 1015.6074 L 248.55469 1059.1543 L 269.46094 1059.1543 L 269.46094 983.32617 L 247.25391 983.32617 L 229.16406 1012.6816 L 211.07422 983.32617 L 188.86719 983.32617 z M 337.57422 983.32617 L 362.49023 1020.5898 L 336.49219 1059.1543 L 360.10742 1059.1543 L 374.73047 1036.2969 L 389.24609 1059.1543 L 413.4043 1059.1543 L 414.91992 1059.1543 C 423.00834 1059.1543 430.3755 1057.8909 437.01953 1055.3633 C 443.66356 1052.8357 449.25887 1049.2958 453.80859 1044.7461 C 457.70836 1040.8463 460.66931 1036.4049 462.69141 1031.4219 C 464.7135 1026.4388 465.72461 1021.0235 465.72461 1015.1738 C 465.72461 1006.1466 462.98074 998.88894 457.49219 993.40039 C 454.17016 990.15058 449.98103 987.659 444.92578 985.92578 C 439.94275 984.19257 434.27507 983.32617 427.91992 983.32617 L 412.32031 983.32617 L 388.70508 983.32617 L 375.16406 1004.666 L 361.73242 983.32617 L 337.57422 983.32617 z M 407.81055 990.0332 L 396.15625 1033.4277 L 387.40625 1020.373 L 407.81055 990.0332 z M 416.11133 991.23438 L 427.37695 991.23438 C 437.63187 991.23437 445.32371 993.79637 450.45117 998.92383 C 454.71203 1003.0402 456.8418 1008.6375 456.8418 1015.7148 C 456.8418 1020.409 456.01256 1024.7781 454.35156 1028.8223 C 452.69054 1032.7942 450.34369 1036.2969 447.31055 1039.3301 C 443.41081 1043.2298 438.78749 1046.1908 433.44336 1048.2129 C 428.17145 1050.235 422.35906 1051.2461 416.00391 1051.2461 L 399.9707 1051.2461 L 416.11133 991.23438 z M 311.69727 1000.7656 C 323.28822 1000.7656 331.19531 1010.2992 331.19531 1021.2402 L 331.19531 1021.457 C 331.19531 1032.398 323.50502 1041.7129 311.91406 1041.7129 C 300.43143 1041.7129 292.52344 1032.1812 292.52344 1021.2402 L 292.52344 1021.0234 C 292.52344 1010.0825 300.21464 1000.7656 311.69727 1000.7656 z M 505.76562 1002.1465 C 503.72096 1002.2007 501.77708 1002.4994 499.93555 1003.041 C 497.48014 1003.691 495.1333 1004.7021 492.89453 1006.0742 C 490.65579 1007.4463 488.56121 1009.1439 486.61133 1011.166 C 484.73366 1013.1159 482.92853 1015.318 481.19531 1017.7734 L 484.98633 1003.1504 L 476.64648 1003.1504 L 461.69727 1059.1543 L 470.03711 1059.1543 L 475.99609 1037.0566 C 477.07936 1032.868 478.6322 1029.1482 480.6543 1025.8984 C 482.67639 1022.6486 484.95089 1019.94 487.47852 1017.7734 C 490.07835 1015.6069 492.85743 1013.9817 495.81836 1012.8984 C 498.85151 1011.7429 501.88482 1011.166 504.91797 1011.166 L 505.46094 1011.166 L 507.84375 1002.1738 C 507.13962 1002.1377 506.44718 1002.1284 505.76562 1002.1465 z M 528.61133 1002.2832 C 524.92823 1002.2832 521.60546 1002.6079 518.64453 1003.2578 C 515.6836 1003.8356 512.79499 1004.6667 509.97852 1005.75 L 511.49414 1012.791 C 514.02176 1011.8522 516.51334 1011.1286 518.96875 1010.623 C 521.49637 1010.1175 524.2774 1009.8652 527.31055 1009.8652 C 532.36579 1009.8652 536.12079 1010.8412 538.57617 1012.791 C 541.10379 1014.7409 542.36719 1017.5199 542.36719 1021.1309 C 542.36719 1021.9252 542.29672 1022.7936 542.15234 1023.7324 C 542.00787 1024.599 541.86313 1025.4283 541.71875 1026.2227 L 541.28516 1027.6309 C 538.61311 1026.8365 535.57979 1026.15 532.18555 1025.5723 C 528.7913 1024.9223 525.21625 1024.5977 521.46094 1024.5977 C 517.85005 1024.5977 514.52729 1025.067 511.49414 1026.0059 C 508.46099 1026.9447 505.82666 1028.2805 503.58789 1030.0137 C 501.34915 1031.7469 499.61444 1033.8786 498.38672 1036.4062 C 497.15903 1038.9339 496.54687 1041.7501 496.54688 1044.8555 C 496.54688 1047.3831 497.01624 1049.6224 497.95508 1051.5723 C 498.89391 1053.4499 500.15731 1055.038 501.74609 1056.3379 C 503.4071 1057.6378 505.28459 1058.6118 507.37891 1059.2617 C 509.54546 1059.9839 511.81996 1060.3457 514.20312 1060.3457 C 518.68063 1060.3457 522.65268 1059.4441 526.11914 1057.6387 C 529.5856 1055.8332 532.58175 1053.4121 535.10938 1050.3789 L 532.83594 1059.1543 L 541.06836 1059.1543 L 549.51758 1027.4141 C 549.87872 1026.1141 550.13101 1024.8155 550.27539 1023.5156 C 550.49208 1022.1435 550.60156 1020.8781 550.60156 1019.7227 C 550.60156 1014.3063 548.6869 1010.0468 544.85938 1006.9414 C 541.10404 1003.836 535.68867 1002.2832 528.61133 1002.2832 z M 521.78516 1030.7734 C 525.25161 1030.7734 528.50201 1031.0257 531.53516 1031.5312 C 534.64052 1032.0368 537.42155 1032.6137 539.87695 1033.2637 L 538.79297 1037.1641 C 538.14299 1039.6195 537.05954 1041.8588 535.54297 1043.8809 C 534.09863 1045.903 532.36585 1047.6709 530.34375 1049.1875 C 528.39387 1050.6318 526.2641 1051.7525 523.95312 1052.5469 C 521.64217 1053.3413 519.2953 1053.7383 516.91211 1053.7383 C 513.22901 1053.7383 510.34043 1052.8719 508.24609 1051.1387 C 506.15178 1049.3332 505.10352 1046.914 505.10352 1043.8809 C 505.10352 1039.9811 506.62115 1036.8383 509.6543 1034.4551 C 512.75966 1031.9997 516.80213 1030.7734 521.78516 1030.7734 z "
       transform="scale(0.26458333)"
       id="path16"
       inkscape:export-xdpi="300"
       inkscape:export-ydpi="300" />
    <path
       d="m 84.081601,133.56505 c 6.19087,0 10.834022,-4.67182 10.834022,-10.43276 v -0.0573 c 0,-5.76094 -4.58583,-10.37543 -10.776699,-10.37543 -6.190869,0 -10.834021,4.67181 -10.834021,10.43276 v 0.0573 c 0,5.76095 4.585829,10.37544 10.776698,10.37544 z m 0.05732,-5.01575 c -3.038112,0 -5.130396,-2.52221 -5.130396,-5.41701 v -0.0573 c 0,-2.8948 2.034961,-5.35968 5.073073,-5.35968 3.066773,0 5.159058,2.5222 5.159058,5.41701 v 0.0573 c 0,2.8948 -2.034962,5.35969 -5.101735,5.35969 z"
       style="font-style:normal;font-variant:normal;font-weight:500;font-stretch:normal;font-size:28.66143227px;line-height:1.25;font-family:GothamBlack;-inkscape-font-specification:'GothamBlack, Medium';font-variant-ligatures:normal;font-variant-caps:normal;font-variant-numeric:normal;font-feature-settings:normal;text-align:start;letter-spacing:0px;word-spacing:0px;writing-mode:lr-tb;text-anchor:start;fill:#000000;fill-opacity:1;stroke:none;stroke-width:0.26458332"
       id="path71"
       inkscape:connector-curvature="0" />
    <path
       d="m 82.469795,196.59539 c 6.19087,0 10.834022,-4.67182 10.834022,-10.43276 v -0.0573 c 0,-5.76094 -4.58583,-10.37543 -10.776699,-10.37543 -6.190869,0 -10.834021,4.67181 -10.834021,10.43276 v 0.0573 c 0,5.76095 4.585829,10.37544 10.776698,10.37544 z m 0.05732,-5.01575 c -3.038112,0 -5.130396,-2.52221 -5.130396,-5.41701 v -0.0573 c 0,-2.8948 2.034961,-5.35968 5.073073,-5.35968 3.066773,0 5.159058,2.5222 5.159058,5.41701 v 0.0573 c 0,2.8948 -2.034962,5.35969 -5.101735,5.35969 z"
       style="font-style:normal;font-variant:normal;font-weight:500;font-stretch:normal;font-size:28.66143227px;line-height:1.25;font-family:GothamBlack;-inkscape-font-specification:'GothamBlack, Medium';font-variant-ligatures:normal;font-variant-caps:normal;font-variant-numeric:normal;font-feature-settings:normal;text-align:start;letter-spacing:0px;word-spacing:0px;writing-mode:lr-tb;text-anchor:start;fill:#000000;fill-opacity:1;stroke:none;stroke-width:0.26458332"
       id="path106"
       inkscape:connector-curvature="0" />
    <path
       inkscape:connector-curvature="0"
       id="path834"
       style="font-style:normal;font-variant:normal;font-weight:500;font-stretch:normal;font-size:28.66143227px;line-height:1.25;font-family:GothamBlack;-inkscape-font-specification:'GothamBlack, Medium';font-variant-ligatures:normal;font-variant-caps:normal;font-variant-numeric:normal;font-feature-settings:normal;text-align:start;letter-spacing:0px;word-spacing:0px;writing-mode:lr-tb;text-anchor:start;fill:#000000;fill-opacity:1;stroke:none;stroke-width:0.26458332"
       d="m 89.0301,196.19413 h 6.2482 l 3.86929,-6.04756 3.84063,6.04756 h 6.3915 l -0.74075,-1.10495 -2.81327,-0.98734 -0.0826,-3.33236 -3.24211,-4.83614 6.59212,-9.80221 h -6.24819 l -3.58268,5.6463 -3.55401,-5.6463 h -6.3915 l 6.59213,9.85953 z"
       sodipodi:nodetypes="cccccccccccccccc" />
    <path
       inkscape:connector-curvature="0"
       id="path836"
       style="font-style:normal;font-variant:normal;font-weight:500;font-stretch:normal;font-size:28.66143227px;line-height:1.25;font-family:GothamBlack;-inkscape-font-specification:'GothamBlack, Medium';font-variant-ligatures:normal;font-variant-caps:normal;font-variant-numeric:normal;font-feature-settings:normal;text-align:start;letter-spacing:0px;word-spacing:0px;writing-mode:lr-tb;text-anchor:start;fill:#000000;fill-opacity:1;stroke:none;stroke-width:0.26458332"
       d="m 26.387034,67.608553 h 6.248192 l 3.869294,-6.047564 3.840632,6.047564 h 6.391503 l -6.878748,-10.260794 6.592128,-9.80221 h -6.24819 l -3.58268,5.6463 -3.554017,-5.6463 h -6.3915 l 6.59213,9.85953 z" />
    <path
       d="m 10.62945,234.21875 h 6.248192 l 3.869294,-6.04757 3.840632,6.04757 h 6.391503 l -6.878748,-10.2608 6.592128,-9.80221 h -6.24819 l -3.58268,5.6463 -3.554017,-5.6463 h -6.3915 l 6.59213,9.85953 z"
       style="font-style:normal;font-variant:normal;font-weight:500;font-stretch:normal;font-size:28.66143227px;line-height:1.25;font-family:GothamBlack;-inkscape-font-specification:'GothamBlack, Medium';font-variant-ligatures:normal;font-variant-caps:normal;font-variant-numeric:normal;font-feature-settings:normal;text-align:start;letter-spacing:0px;word-spacing:0px;writing-mode:lr-tb;text-anchor:start;fill:#d70000;fill-opacity:1;stroke:none;stroke-width:0.26458332"
       id="path59"
       inkscape:connector-curvature="0"
       inkscape:export-xdpi="300"
       inkscape:export-ydpi="300" />
    <path
       sodipodi:nodetypes="ccccc"
       d="m 91.015327,144.22849 6.03529,-1.61715 10.776683,-40.126 -6.03528,1.61715 z"
       style="font-style:normal;font-variant:normal;font-weight:500;font-stretch:normal;font-size:28.66143227px;line-height:1.25;font-family:GothamBlack;-inkscape-font-specification:'GothamBlack, Medium';font-variant-ligatures:normal;font-variant-caps:normal;font-variant-numeric:normal;font-feature-settings:normal;text-align:start;letter-spacing:0px;word-spacing:0px;writing-mode:lr-tb;text-anchor:start;fill:#000000;fill-opacity:1;stroke:none;stroke-width:0.26458332"
       id="path61"
       inkscape:connector-curvature="0" />
    <path
       inkscape:connector-curvature="0"
       id="path73"
       d="m 74.777339,102.09891 17.488461,16.94848 17.48846,16.94848 6.2484,-1.34662 L 98.411078,117.91647 80.92273,100.9685 Z"
       style="font-style:normal;font-variant:normal;font-weight:500;font-stretch:normal;font-size:28.66143227px;line-height:1.25;font-family:GothamBlack;-inkscape-font-specification:'GothamBlack, Medium';font-variant-ligatures:normal;font-variant-caps:normal;font-variant-numeric:normal;font-feature-settings:normal;text-align:start;letter-spacing:0px;word-spacing:0px;writing-mode:lr-tb;text-anchor:start;fill:#000000;fill-opacity:1;stroke:none;stroke-width:0.26458332" />
    <path
       d="m 110.06759,131.0715 q 2.5222,0 4.61449,-0.80252 2.12095,-0.80252 3.66866,-2.35023 1.20378,-1.20378 1.863,-2.78016 0.65921,-1.60504 0.65921,-3.46804 0,-2.80882 -1.69103,-4.44252 -2.03496,-2.03496 -6.10488,-2.03496 h -2.98079 l -4.27055,15.87843 z m -1.69103,-17.97071 h 4.84379 q 2.5222,0 4.49984,0.68787 2.0063,0.68787 3.32473,1.97764 2.17827,2.17827 2.17827,5.76095 0,2.32157 -0.80252,4.29921 -0.80252,1.97764 -2.35024,3.52536 -1.80567,1.80567 -4.44252,2.80882 -2.63685,1.00315 -5.84694,1.00315 h -6.79275 z"
       style="font-style:italic;font-variant:normal;font-weight:normal;font-stretch:normal;font-size:28.66143227px;line-height:1.25;font-family:'Gotham Book';-inkscape-font-specification:'Gotham Book, Italic';font-variant-ligatures:normal;font-variant-caps:normal;font-variant-numeric:normal;font-feature-settings:normal;text-align:start;letter-spacing:0px;word-spacing:0px;writing-mode:lr-tb;text-anchor:start;fill:#000000;fill-opacity:1;stroke:none;stroke-width:0.26458332"
       id="path75"
       inkscape:connector-curvature="0" />
    <path
       d="m 110.06759,194.10184 q 2.5222,0 4.61449,-0.80252 2.12095,-0.80252 3.66866,-2.35023 1.20378,-1.20378 1.863,-2.78016 0.65921,-1.60504 0.65921,-3.46804 0,-2.80882 -1.69103,-4.44252 -2.03496,-2.03496 -6.10488,-2.03496 h -2.98079 l -4.27055,15.87843 z m -1.69103,-17.97071 h 4.84379 q 2.5222,0 4.49984,0.68787 2.0063,0.68787 3.32473,1.97764 2.17827,2.17827 2.17827,5.76095 0,2.32157 -0.80252,4.29921 -0.80252,1.97764 -2.35024,3.52536 -1.80567,1.80567 -4.44252,2.80882 -2.63685,1.00315 -5.84694,1.00315 h -6.79275 z"
       style="font-style:italic;font-variant:normal;font-weight:normal;font-stretch:normal;font-size:28.66143227px;line-height:1.25;font-family:'Gotham Book';-inkscape-font-specification:'Gotham Book, Italic';font-variant-ligatures:normal;font-variant-caps:normal;font-variant-numeric:normal;font-feature-settings:normal;text-align:start;letter-spacing:0px;word-spacing:0px;writing-mode:lr-tb;text-anchor:start;fill:#000000;fill-opacity:1;stroke:none;stroke-width:0.26458332"
       id="path110"
       inkscape:connector-curvature="0" />
    <path
       d="m 128.73872,118.34583 h 2.20693 l -1.00315,3.86929 q 0.68787,-0.97449 1.43307,-1.74835 0.77386,-0.80252 1.66236,-1.34708 0.88851,-0.54457 1.863,-0.80252 0.97448,-0.28662 2.09228,-0.2293 l -0.63055,2.3789 h -0.14331 q -1.20378,0 -2.40756,0.45859 -1.17512,0.42992 -2.20693,1.28976 -1.00315,0.85984 -1.80567,2.14961 -0.80252,1.28976 -1.23244,2.95213 l -1.57638,5.84693 h -2.20693 z"
       style="font-style:italic;font-variant:normal;font-weight:normal;font-stretch:normal;font-size:28.66143227px;line-height:1.25;font-family:'Gotham Book';-inkscape-font-specification:'Gotham Book, Italic';font-variant-ligatures:normal;font-variant-caps:normal;font-variant-numeric:normal;font-feature-settings:normal;text-align:start;letter-spacing:0px;word-spacing:0px;writing-mode:lr-tb;text-anchor:start;fill:#000000;fill-opacity:1;stroke:none;stroke-width:0.26458332"
       id="path77"
       inkscape:connector-curvature="0" />
    <path
       d="m 126.11246,181.37617 h 2.20693 l -1.00315,3.86929 q 0.68787,-0.97449 1.43307,-1.74835 0.77386,-0.80252 1.66236,-1.34708 0.88851,-0.54457 1.863,-0.80252 0.97448,-0.28662 2.09228,-0.2293 l -0.63055,2.3789 h -0.14331 q -1.20378,0 -2.40756,0.45859 -1.17512,0.42992 -2.20693,1.28976 -1.00315,0.85984 -1.80567,2.14961 -0.80252,1.28976 -1.23244,2.95213 l -1.57638,5.84693 h -2.20693 z"
       style="font-style:italic;font-variant:normal;font-weight:normal;font-stretch:normal;font-size:28.66143227px;line-height:1.25;font-family:'Gotham Book';-inkscape-font-specification:'Gotham Book, Italic';font-variant-ligatures:normal;font-variant-caps:normal;font-variant-numeric:normal;font-feature-settings:normal;text-align:start;letter-spacing:0px;word-spacing:0px;writing-mode:lr-tb;text-anchor:start;fill:#000000;fill-opacity:1;stroke:none;stroke-width:0.26458332"
       id="path112"
       inkscape:connector-curvature="0" />
    <path
       d="m 141.76086,131.73072 q 0.94583,0 1.86299,-0.31528 0.91717,-0.31528 1.69103,-0.8885 0.80252,-0.60189 1.37574,-1.40441 0.60189,-0.80252 0.85985,-1.77701 l 0.28661,-1.03181 q -0.97449,-0.25796 -2.20693,-0.45859 -1.20378,-0.20063 -2.57953,-0.20063 -1.97764,0 -3.21008,0.97449 -1.20378,0.94583 -1.20378,2.49355 0,1.20378 0.83118,1.92031 0.83119,0.68788 2.29292,0.68788 z m -0.71654,1.74834 q -0.94582,0 -1.80567,-0.28661 -0.83118,-0.25795 -1.49039,-0.77386 -0.63055,-0.51591 -1.00315,-1.2611 -0.3726,-0.77386 -0.3726,-1.77701 0,-1.23244 0.48724,-2.23559 0.48725,-1.00315 1.37575,-1.69103 0.88851,-0.68787 2.09229,-1.06047 1.20378,-0.3726 2.63685,-0.3726 1.49039,0 2.83748,0.25795 1.34709,0.2293 2.40756,0.54457 l 0.11465,-0.3726 q 0.0573,-0.31527 0.11464,-0.65921 0.0573,-0.3726 0.0573,-0.68787 0,-1.43308 -1.00315,-2.20694 -0.97448,-0.77385 -2.98078,-0.77385 -1.20378,0 -2.20693,0.20063 -0.97449,0.20063 -1.97764,0.57322 l -0.40126,-1.86299 q 1.11779,-0.42992 2.29291,-0.65921 1.17512,-0.25795 2.63685,-0.25795 2.80882,0 4.29922,1.23244 1.51905,1.23244 1.51905,3.38205 0,0.45858 -0.086,1.00315 -0.0573,0.5159 -0.20063,1.03181 l -2.23559,8.3978 h -2.17827 l 0.60189,-2.32158 q -1.00315,1.20378 -2.3789,1.92032 -1.37575,0.71653 -3.15276,0.71653 z"
       style="font-style:italic;font-variant:normal;font-weight:normal;font-stretch:normal;font-size:28.66143227px;line-height:1.25;font-family:'Gotham Book';-inkscape-font-specification:'Gotham Book, Italic';font-variant-ligatures:normal;font-variant-caps:normal;font-variant-numeric:normal;font-feature-settings:normal;text-align:start;letter-spacing:0px;word-spacing:0px;writing-mode:lr-tb;text-anchor:start;fill:#000000;fill-opacity:1;stroke:none;stroke-width:0.26458332"
       id="path79"
       inkscape:connector-curvature="0" />
    <path
       d="m 136.76613,194.76106 q 0.94583,0 1.86299,-0.31528 0.91717,-0.31528 1.69103,-0.8885 0.80252,-0.60189 1.37574,-1.40441 0.60189,-0.80252 0.85985,-1.77701 l 0.28661,-1.03181 q -0.97449,-0.25796 -2.20693,-0.45859 -1.20378,-0.20063 -2.57953,-0.20063 -1.97764,0 -3.21008,0.97449 -1.20378,0.94583 -1.20378,2.49355 0,1.20378 0.83118,1.92031 0.83119,0.68788 2.29292,0.68788 z m -0.71654,1.74834 q -0.94582,0 -1.80567,-0.28661 -0.83118,-0.25795 -1.49039,-0.77386 -0.63055,-0.51591 -1.00315,-1.2611 -0.3726,-0.77386 -0.3726,-1.77701 0,-1.23244 0.48724,-2.23559 0.48725,-1.00315 1.37575,-1.69103 0.88851,-0.68787 2.09229,-1.06047 1.20378,-0.3726 2.63685,-0.3726 1.49039,0 2.83748,0.25795 1.34709,0.2293 2.40756,0.54457 l 0.11465,-0.3726 q 0.0573,-0.31527 0.11464,-0.65921 0.0573,-0.3726 0.0573,-0.68787 0,-1.43308 -1.00315,-2.20694 -0.97448,-0.77385 -2.98078,-0.77385 -1.20378,0 -2.20693,0.20063 -0.97449,0.20063 -1.97764,0.57322 l -0.40126,-1.86299 q 1.11779,-0.42992 2.29291,-0.65921 1.17512,-0.25795 2.63685,-0.25795 2.80882,0 4.29922,1.23244 1.51905,1.23244 1.51905,3.38205 0,0.45858 -0.086,1.00315 -0.0573,0.5159 -0.20063,1.03181 l -2.23559,8.3978 h -2.17827 l 0.60189,-2.32158 q -1.00315,1.20378 -2.3789,1.92032 -1.37575,0.71653 -3.15276,0.71653 z"
       style="font-style:italic;font-variant:normal;font-weight:normal;font-stretch:normal;font-size:28.66143227px;line-height:1.25;font-family:'Gotham Book';-inkscape-font-specification:'Gotham Book, Italic';font-variant-ligatures:normal;font-variant-caps:normal;font-variant-numeric:normal;font-feature-settings:normal;text-align:start;letter-spacing:0px;word-spacing:0px;writing-mode:lr-tb;text-anchor:start;fill:#000000;fill-opacity:1;stroke:none;stroke-width:0.26458332"
       id="path114"
       inkscape:connector-curvature="0" />
    <path
       d="m 157.12831,120.2948 h -2.03496 l 0.5159,-1.94897 h 2.03497 l 0.48724,-1.77701 q 0.57323,-2.23559 1.86299,-3.29607 1.28977,-1.08913 3.21008,-1.08913 1.74835,0 2.95213,0.63055 l -0.51591,1.89166 q -0.65921,-0.31528 -1.23244,-0.45859 -0.54456,-0.1433 -1.20378,-0.1433 -1.06047,0 -1.83433,0.68787 -0.7452,0.65921 -1.14646,2.12095 l -0.37259,1.43307 h 4.84378 l -0.54457,1.94897 h -4.81512 l -3.46803,12.86899 h -2.20693 z"
       style="font-style:italic;font-variant:normal;font-weight:normal;font-stretch:normal;font-size:28.66143227px;line-height:1.25;font-family:'Gotham Book';-inkscape-font-specification:'Gotham Book, Italic';font-variant-ligatures:normal;font-variant-caps:normal;font-variant-numeric:normal;font-feature-settings:normal;text-align:start;letter-spacing:0px;word-spacing:0px;writing-mode:lr-tb;text-anchor:start;fill:#000000;fill-opacity:1;stroke:none;stroke-width:0.26458332"
       id="path81"
       inkscape:connector-curvature="0" />
    <path
       d="m 148.66837,183.32514 h -2.03496 l 0.5159,-1.94897 h 2.03497 l 0.48724,-1.77701 q 0.57323,-2.23559 1.86299,-3.29607 1.28977,-1.08913 3.21008,-1.08913 1.74835,0 2.95213,0.63055 l -0.51591,1.89166 q -0.65921,-0.31528 -1.23244,-0.45859 -0.54456,-0.1433 -1.20378,-0.1433 -1.06047,0 -1.83433,0.68787 -0.7452,0.65921 -1.14646,2.12095 l -0.37259,1.43307 h 4.84378 l -0.54457,1.94897 h -4.81512 l -3.46803,12.86899 h -2.20693 z"
       style="font-style:italic;font-variant:normal;font-weight:normal;font-stretch:normal;font-size:28.66143227px;line-height:1.25;font-family:'Gotham Book';-inkscape-font-specification:'Gotham Book, Italic';font-variant-ligatures:normal;font-variant-caps:normal;font-variant-numeric:normal;font-feature-settings:normal;text-align:start;letter-spacing:0px;word-spacing:0px;writing-mode:lr-tb;text-anchor:start;fill:#000000;fill-opacity:1;stroke:none;stroke-width:0.26458332"
       id="path116"
       inkscape:connector-curvature="0" />
    <path
       d="m 168.8795,133.42174 q -1.60504,0 -2.60819,-0.71654 -1.00315,-0.74519 -1.00315,-2.20693 0,-0.40126 0.0573,-0.80252 0.0573,-0.40126 0.14331,-0.74519 l 2.32157,-8.65576 h -2.03496 l 0.51591,-1.94897 h 2.06362 l 1.20378,-4.47119 h 2.17827 l -1.20378,4.47119 h 4.67181 l -0.5159,1.94897 h -4.67182 l -2.29291,8.54111 q -0.0573,0.25795 -0.086,0.57323 -0.0287,0.28661 -0.0287,0.51591 0,0.77385 0.54457,1.14645 0.54457,0.3726 1.4904,0.3726 0.97448,0 2.1496,-0.45858 l -0.54456,2.0063 q -0.57323,0.22929 -1.14646,0.31528 -0.54457,0.11464 -1.20378,0.11464 z"
       style="font-style:italic;font-variant:normal;font-weight:normal;font-stretch:normal;font-size:28.66143227px;line-height:1.25;font-family:'Gotham Book';-inkscape-font-specification:'Gotham Book, Italic';font-variant-ligatures:normal;font-variant-caps:normal;font-variant-numeric:normal;font-feature-settings:normal;text-align:start;letter-spacing:0px;word-spacing:0px;writing-mode:lr-tb;text-anchor:start;fill:#000000;fill-opacity:1;stroke:none;stroke-width:0.26458332"
       id="path83"
       inkscape:connector-curvature="0" />
    <path
       d="m 158.81454,196.45208 q -1.60504,0 -2.60819,-0.71654 -1.00315,-0.74519 -1.00315,-2.20693 0,-0.40126 0.0573,-0.80252 0.0573,-0.40126 0.14331,-0.74519 l 2.32157,-8.65576 h -2.03496 l 0.51591,-1.94897 h 2.06362 l 1.20378,-4.47119 h 2.17827 l -1.20378,4.47119 h 4.67181 l -0.5159,1.94897 h -4.67182 l -2.29291,8.54111 q -0.0573,0.25795 -0.086,0.57323 -0.0287,0.28661 -0.0287,0.51591 0,0.77385 0.54457,1.14645 0.54457,0.3726 1.4904,0.3726 0.97448,0 2.1496,-0.45858 l -0.54456,2.0063 q -0.57323,0.22929 -1.14646,0.31528 -0.54457,0.11464 -1.20378,0.11464 z"
       style="font-style:italic;font-variant:normal;font-weight:normal;font-stretch:normal;font-size:28.66143227px;line-height:1.25;font-family:'Gotham Book';-inkscape-font-specification:'Gotham Book, Italic';font-variant-ligatures:normal;font-variant-caps:normal;font-variant-numeric:normal;font-feature-settings:normal;text-align:start;letter-spacing:0px;word-spacing:0px;writing-mode:lr-tb;text-anchor:start;fill:#000000;fill-opacity:1;stroke:none;stroke-width:0.26458332"
       id="path118"
       inkscape:connector-curvature="0" />
  </g>
</svg>
