<?xml version="1.0" standalone="no"?>
<!DOCTYPE svg PUBLIC "-//W3C//DTD SVG 20010904//EN"
 "http://www.w3.org/TR/2001/REC-SVG-20010904/DTD/svg10.dtd">
<svg version="1.0" xmlns="http://www.w3.org/2000/svg"
 width="240.000000pt" height="240.000000pt" viewBox="0 0 240.000000 240.000000"
 preserveAspectRatio="xMidYMid meet">
<metadata>
Created by potrace 1.11, written by Peter Selinger 2001-2013
</metadata>
<g transform="translate(0.000000,240.000000) scale(0.100000,-0.100000)"
fill="#000000" stroke="none">
<path d="M40 2375 c0 -3 173 -265 386 -582 l385 -577 -242 -361 c-133 -198
-316 -469 -406 -602 l-163 -243 369 0 368 0 218 343 c120 188 223 348 230 355
9 10 25 -9 79 -95 37 -59 105 -166 151 -238 47 -71 90 -140 97 -153 7 -12 40
-65 73 -117 l60 -94 378 -1 378 0 -407 606 -406 606 98 147 c54 80 101 148
104 151 3 3 10 13 15 22 6 10 132 199 280 419 149 221 272 406 273 411 2 4
-160 7 -364 6 l-368 -3 -93 -145 c-51 -80 -98 -155 -105 -168 -29 -50 -211
-333 -218 -337 -5 -3 -101 144 -215 325 l-207 330 -374 0 c-206 0 -374 -2
-374 -5z"/>
</g>
</svg>
